<svg xmlns="http://www.w3.org/2000/svg" width="47.125" height="53.62" viewBox="0 0 47.125 53.62">
  <defs>
    <style>
      .cls-1 {
        fill: #fff;
        fill-rule: evenodd;
      }
    </style>
  </defs>
  <path id="Forma_1" data-name="Forma 1" class="cls-1" d="M458.624,2115.15h-3.641v-22.91a0.816,0.816,0,0,0-.832-0.83H452.7l-2.289-14.27a0.762,0.762,0,0,0-.728-0.63H445a0.7,0.7,0,0,0-.728.63l-2.288,14.27h-2.913v-6.15a1.065,1.065,0,0,0-.416-0.73,0.79,0.79,0,0,0-.832.11l-9.049,6.77v-6.15a1.065,1.065,0,0,0-.416-0.73,0.791,0.791,0,0,0-.833.11l-9.049,6.77h-1.248a0.819,0.819,0,0,0-.832.83v22.91h-3.121a0.83,0.83,0,1,0,0,1.66h45.456a0.819,0.819,0,0,0,.832-0.83A1.1,1.1,0,0,0,458.624,2115.15Zm-13-37.07h3.329l2.184,13.33h-7.593Zm-8.113,8.74v4.59h-6.137Zm-10.3,0v4.59h-6.137Zm1.145,28.33h-5.2v-10h5.2v10Zm6.761,0h-5.2v-10h5.2v10Zm18.2,0H436.78v-10.73a0.822,0.822,0,0,0-.832-0.83H422.322a0.819,0.819,0,0,0-.833.83v10.83h-3.64v-22.28h35.47v22.18h0Zm-2.913-48.22v-0.31a3.433,3.433,0,0,0-6.865,0v0.31a3.889,3.889,0,0,0-1.248,2.5,3.035,3.035,0,0,0,1.56,2.5,3.368,3.368,0,0,0,.832,2.19,0.813,0.813,0,0,0,1.249-1.04,1.656,1.656,0,0,1-.417-1.25v-0.21a0.945,0.945,0,0,0-.416-0.83,2.141,2.141,0,0,1-1.248-1.36,2.033,2.033,0,0,1,1.248-1.45,0.844,0.844,0,0,0,.416-0.94,1.153,1.153,0,0,1-.1-0.52,1.872,1.872,0,1,1,3.744,0,1.144,1.144,0,0,1-.1.52,0.844,0.844,0,0,0,.416.94,1.821,1.821,0,0,1,1.248,1.45,1.622,1.622,0,0,1-1.248,1.36,0.7,0.7,0,0,0-.416.83v0.21a1.67,1.67,0,0,1-.624,1.35,0.823,0.823,0,0,0,0,1.15,0.492,0.492,0,0,0,.52.21,0.816,0.816,0,0,0,.52-0.21,3.408,3.408,0,0,0,1.04-2.4A2.745,2.745,0,0,0,450.406,2066.93Zm-21.843,29.99h-5.2a0.835,0.835,0,0,0,0,1.67h5.2A0.835,0.835,0,0,0,428.563,2096.92Zm8.737,0h-5.2a0.835,0.835,0,0,0,0,1.67h5.2a0.819,0.819,0,0,0,.832-0.83A1,1,0,0,0,437.3,2096.92Zm8.634-.1h-5.2a0.819,0.819,0,0,0-.832.83,0.9,0.9,0,0,0,.832.84h5.2A0.835,0.835,0,0,0,445.934,2096.82Zm1.768,6.77h-7.281a0.819,0.819,0,0,0-.832.83v5.42a0.822,0.822,0,0,0,.832.83H447.7a0.819,0.819,0,0,0,.832-0.83v-5.42A1,1,0,0,0,447.7,2103.59ZM446.87,2109h-5.721v-3.85h5.721V2109Z" transform="translate(-412.438 -2063.19)"/>
</svg>
