<svg xmlns="http://www.w3.org/2000/svg" width="46.562" height="49.88" viewBox="0 0 46.562 49.88">
  <defs>
    <style>
      .cls-1 {
        fill: #fff;
        fill-rule: evenodd;
      }
    </style>
  </defs>
  <path id="Forma_1" data-name="Forma 1" class="cls-1" d="M739.347,2101.64a2.95,2.95,0,0,0,2.151-1.21l7.729-10.76a0.843,0.843,0,0,0-.086-1.08,0.818,0.818,0,0,0-1.067-.08l-10.687,7.78a2.978,2.978,0,0,0-.349,4.49,2.92,2.92,0,0,0,2.078.87A1.786,1.786,0,0,0,739.347,2101.64Zm-1.515-3.05a1.294,1.294,0,0,1,.525-0.95l6.519-4.75-4.714,6.56a1.294,1.294,0,0,1-1.957.16A1.3,1.3,0,0,1,737.832,2098.59Zm20-12.27a0.4,0.4,0,0,1-.017-0.05,0.132,0.132,0,0,0-.037-0.04,22.8,22.8,0,0,0-2.942-4l1.773-1.78,1.167,1.17,3.5-3.53-3.5-3.52-3.5,3.52,1.168,1.18-1.773,1.79a22.4,22.4,0,0,0-3.97-2.97c-0.016-.01-0.025-0.03-0.041-0.04s-0.036,0-.053-0.01a21.856,21.856,0,0,0-8.48-2.83v-0.99h1.238a2.08,2.08,0,0,0,0-4.16h-7.429a2.08,2.08,0,0,0,0,4.16h1.239v0.96a21.984,21.984,0,0,0-2.662.44,0.833,0.833,0,0,0-.62,1,0.823,0.823,0,0,0,.989.62,20.072,20.072,0,0,1,2.295-.39l0.886-.07c0.271-.02.52-0.04,0.762-0.05v1.64a0.826,0.826,0,1,0,1.651,0v-1.64a20.481,20.481,0,0,1,8.631,2.37l-0.814,1.42a0.826,0.826,0,0,0,.3,1.13,0.78,0.78,0,0,0,.411.12,0.821,0.821,0,0,0,.716-0.42l0.812-1.42a20.817,20.817,0,0,1,6.415,6.47l-1.406.81a0.838,0.838,0,0,0-.3,1.14,0.811,0.811,0,0,0,.715.41,0.769,0.769,0,0,0,.412-0.11l1.409-.82a20.759,20.759,0,0,1,2.352,8.83H757.5a0.83,0.83,0,0,0,0,1.66h1.63a20.72,20.72,0,0,1-2.352,8.83l-1.409-.82a0.821,0.821,0,0,0-1.127.31,0.83,0.83,0,0,0,.3,1.13l1.4,0.82a20.87,20.87,0,0,1-6.415,6.46l-0.811-1.41a0.823,0.823,0,0,0-1.128-.31,0.838,0.838,0,0,0-.3,1.14l0.814,1.42a20.327,20.327,0,0,1-8.631,2.36v-1.64a0.826,0.826,0,1,0-1.651,0v1.65a20.318,20.318,0,0,1-3.942-.52,0.831,0.831,0,0,0-.369,1.62,21.725,21.725,0,0,0,5,.58h0.154a22.091,22.091,0,0,0,10.912-2.97c0.025-.02.052-0.02,0.077-0.04s0.026-.02.041-0.03a22.54,22.54,0,0,0,8.068-8.12c0.015-.02.035-0.04,0.049-0.06s0.009-.04.017-0.06A22.493,22.493,0,0,0,757.837,2086.32Zm-0.057-9.4,1.167,1.17-1.167,1.18-1.168-1.18Zm-19.953-1.86v-2.51h-2.889a0.409,0.409,0,0,1-.412-0.41,0.418,0.418,0,0,1,.412-0.42h7.429a0.419,0.419,0,0,1,.413.42,0.41,0.41,0,0,1-.413.41h-2.889v2.51c-0.287-.01-0.561-0.01-0.825-0.01h-0.135c-0.135,0-.27.01-0.406,0.01h-0.285Zm-6.6,6.64H727.1a0.83,0.83,0,0,0,0,1.66h4.127A0.83,0.83,0,0,0,731.224,2081.7Zm0,5.82h-8.255a0.83,0.83,0,0,0,0,1.66h8.255A0.83,0.83,0,0,0,731.224,2087.52Zm0,5.82H718.842a0.83,0.83,0,0,0,0,1.66h12.382A0.83,0.83,0,0,0,731.224,2093.34Zm0,5.82H715.54a0.83,0.83,0,0,0,0,1.66h15.684A0.83,0.83,0,0,0,731.224,2099.16Zm0,5.82H720.493a0.83,0.83,0,0,0,0,1.66h10.731A0.83,0.83,0,0,0,731.224,2104.98Zm0,5.82h-5.778a0.83,0.83,0,0,0,0,1.66h5.778A0.83,0.83,0,0,0,731.224,2110.8Z" transform="translate(-714.719 -2070.06)"/>
</svg>
