<svg xmlns="http://www.w3.org/2000/svg" width="42.22" height="55.6" viewBox="0 0 42.22 55.6">
  <defs>
    <style>
      .cls-1 {
        fill: #fff;
        fill-rule: evenodd;
      }
    </style>
  </defs>
  <path class="cls-1" d="M1053.01,2075.46a15.837,15.837,0,0,0-19.66,23.84,0.876,0.876,0,0,0,.69.34,0.848,0.848,0,0,0,.54-0.19,0.875,0.875,0,0,0,.15-1.23,14.088,14.088,0,0,1,17.49-21.2,0.864,0.864,0,0,0,1.17-.38A0.875,0.875,0,0,0,1053.01,2075.46Zm7,7a0.879,0.879,0,1,0-1.57.79,14.084,14.084,0,0,1-21.22,17.46,0.877,0.877,0,0,0-1.07,1.39A15.841,15.841,0,0,0,1060.01,2082.46Zm-2.27-3.34c-0.21-.25-0.44-0.49-0.67-0.72s-0.48-.46-0.73-0.68a0.875,0.875,0,0,0-1.16,1.31c0.22,0.2.44,0.4,0.65,0.61s0.41,0.42.6,0.64a0.854,0.854,0,0,0,.66.3,0.932,0.932,0,0,0,.58-0.22A0.883,0.883,0,0,0,1057.74,2079.12Zm8.82,12.04a2.936,2.936,0,0,0,0-3.1l-1.15-1.89a1.3,1.3,0,0,1-.17-0.84l0.35-2.18a2.993,2.993,0,0,0-1.2-2.88l-1.79-1.3a1.257,1.257,0,0,1-.47-0.7l-0.52-2.15a2.954,2.954,0,0,0-2.2-2.2l-2.15-.52a1.216,1.216,0,0,1-.71-0.48l-1.3-1.78a2.966,2.966,0,0,0-2.88-1.19l-2.19.34a1.223,1.223,0,0,1-.83-0.17l-1.89-1.15a3,3,0,0,0-3.11,0l-1.89,1.15a1.239,1.239,0,0,1-.84.17l-2.18-.35a2.984,2.984,0,0,0-2.88,1.2l-1.3,1.78a1.247,1.247,0,0,1-.71.48l-2.15.52a2.954,2.954,0,0,0-2.2,2.2l-0.52,2.15a1.224,1.224,0,0,1-.48.7l-1.78,1.3a2.973,2.973,0,0,0-1.2,2.88l0.35,2.18a1.256,1.256,0,0,1-.17.83l-1.15,1.9a2.936,2.936,0,0,0,0,3.1l1.15,1.89a1.3,1.3,0,0,1,.17.84l-0.35,2.18a2.994,2.994,0,0,0,1.19,2.88l1.79,1.3a1.224,1.224,0,0,1,.48.7l0.52,2.15a2.954,2.954,0,0,0,2.2,2.2l0.9,0.22-6.09,13.55a0.9,0.9,0,0,0,.1.88,0.876,0.876,0,0,0,.81.35l4.89-.59,2.82,4.04a0.887,0.887,0,0,0,.72.38,0.2,0.2,0,0,0,.08-0.01,0.866,0.866,0,0,0,.72-0.51l6.21-13.84,0.79,0.48a2.968,2.968,0,0,0,3.11,0l0.81-.5,6.22,13.86a0.88,0.88,0,0,0,.72.51,0.249,0.249,0,0,0,.08.01,0.861,0.861,0,0,0,.72-0.38l2.82-4.04,4.89,0.59a0.882,0.882,0,0,0,.91-1.23l-6.09-13.56,0.87-.21a2.969,2.969,0,0,0,2.2-2.2l0.52-2.15a1.257,1.257,0,0,1,.47-0.7l1.79-1.3a3,3,0,0,0,1.2-2.88l-0.35-2.18a1.3,1.3,0,0,1,.17-0.84Zm-30.18,30.32-2.23-3.2a0.886,0.886,0,0,0-.82-0.37l-3.88.47,5.54-12.35a1.326,1.326,0,0,1,.27.26l1.3,1.79a3,3,0,0,0,.41.46l-2.92,6.5a0.883,0.883,0,0,0,.45,1.16,0.842,0.842,0,0,0,.35.07,0.866,0.866,0,0,0,.8-0.51l2.91-6.48a2.889,2.889,0,0,0,.88-0.01l2.18-.34a1.275,1.275,0,0,1,.39,0Zm26.01-3.11-3.87-.46a0.9,0.9,0,0,0-.83.37l-2.23,3.2-5.63-12.55a1.028,1.028,0,0,1,.35,0l2.19,0.34a3.088,3.088,0,0,0,.91.01l2.91,6.48a0.866,0.866,0,0,0,.8.51,0.922,0.922,0,0,0,.36-0.07,0.879,0.879,0,0,0,.44-1.16l-2.93-6.52a4.087,4.087,0,0,0,.39-0.44l1.3-1.79a1,1,0,0,1,.3-0.28Zm2.67-28.12-1.15,1.89a2.975,2.975,0,0,0-.4,2.02l0.34,2.18a1.2,1.2,0,0,1-.49,1.19l-1.79,1.3a2.929,2.929,0,0,0-1.14,1.71l-0.52,2.15a1.238,1.238,0,0,1-.91.91l-2.16.52a2.992,2.992,0,0,0-1.71,1.14l-1.3,1.79a1.222,1.222,0,0,1-1.19.49l-2.18-.34a2.975,2.975,0,0,0-2.02.4l-1.89,1.15a1.246,1.246,0,0,1-1.29,0l-1.89-1.15a2.967,2.967,0,0,0-1.56-.44,2.383,2.383,0,0,0-.46.04l-2.19.34a1.225,1.225,0,0,1-1.18-.49l-1.31-1.79a2.929,2.929,0,0,0-1.71-1.14l-2.15-.52a1.238,1.238,0,0,1-.91-0.91l-0.52-2.15a2.944,2.944,0,0,0-1.15-1.71l-1.78-1.3a1.229,1.229,0,0,1-.5-1.19l0.35-2.18a2.975,2.975,0,0,0-.4-2.02l-1.16-1.89a1.228,1.228,0,0,1,0-1.28l1.16-1.89a2.986,2.986,0,0,0,.4-2.02l-0.35-2.18a1.229,1.229,0,0,1,.5-1.19l1.79-1.3a3.041,3.041,0,0,0,1.14-1.71l0.52-2.15a1.238,1.238,0,0,1,.91-0.91l2.15-.52a3,3,0,0,0,1.72-1.15l1.3-1.78a1.2,1.2,0,0,1,1.19-.49l2.18,0.34a2.975,2.975,0,0,0,2.02-.4l1.89-1.15a1.246,1.246,0,0,1,1.29,0l1.89,1.15a2.975,2.975,0,0,0,2.02.4l2.18-.34a1.2,1.2,0,0,1,1.19.49l1.3,1.78a3,3,0,0,0,1.72,1.15l2.15,0.52a1.238,1.238,0,0,1,.91.91l0.52,2.15a2.96,2.96,0,0,0,1.14,1.71l1.79,1.3a1.2,1.2,0,0,1,.49,1.19l-0.34,2.18a2.986,2.986,0,0,0,.4,2.02l1.15,1.89A1.186,1.186,0,0,1,1065.06,2090.25Zm-8.89-3.37a1.576,1.576,0,0,0-1.32-1.08l-5.28-.63-2.23-4.82a1.576,1.576,0,0,0-1.44-.92,1.6,1.6,0,0,0-1.44.92l-2.22,4.83-5.28.62a1.58,1.58,0,0,0-.89,2.73l3.9,3.61-1.03,5.21a1.562,1.562,0,0,0,.62,1.58,1.53,1.53,0,0,0,.93.31,1.676,1.676,0,0,0,.78-0.2l4.63-2.6,4.64,2.6a1.584,1.584,0,0,0,1.71-.11,1.562,1.562,0,0,0,.62-1.58l-1.04-5.21,3.9-3.61A1.568,1.568,0,0,0,1056.17,2086.88Zm-5.89,4.31a0.867,0.867,0,0,0-.26.81l1.06,5.33-4.75-2.66a0.876,0.876,0,0,0-.85,0l-4.75,2.66,1.06-5.33a0.85,0.85,0,0,0-.27-0.81l-3.99-3.69,5.4-.64a0.89,0.89,0,0,0,.7-0.51l2.27-4.93,2.28,4.93a0.89,0.89,0,0,0,.69.51l5.4,0.64Z" transform="translate(-1024.81 -2068.53)"/>
</svg>
