<svg xmlns="http://www.w3.org/2000/svg" width="51.19" height="51.18" viewBox="0 0 51.19 51.18">
  <defs>
    <style>
      .cls-1 {
        fill: #fff;
        fill-rule: evenodd;
      }
    </style>
  </defs>
  <path id="Forma_1" data-name="Forma 1" class="cls-1" d="M1323.9,2077.91a3.2,3.2,0,0,0-3.2,3.2v8.54h2.13v-8.54a1.071,1.071,0,0,1,1.07-1.07h25.6v-2.13h-25.6Zm0,32.02a1.071,1.071,0,0,1-1.07-1.07v-10.67h-2.13v10.67a3.2,3.2,0,0,0,3.2,3.2h10.66v-2.13H1323.9Zm26.35,2.75-25.9-25.92a1.062,1.062,0,0,0-1.51,0l-6.1,6.1a1.068,1.068,0,0,0,0,1.5l25.91,25.93a1.06,1.06,0,0,0,.75.31,1.083,1.083,0,0,0,.76-0.31l6.09-6.1A1.062,1.062,0,0,0,1350.25,2112.68Zm-6.85,5.34-24.39-24.41,4.58-4.59,24.4,24.41Zm19.96-8.09h-16v2.13h11.74v5.34a1.054,1.054,0,0,0,1.06,1.06h3.2A4.265,4.265,0,1,0,1363.36,2109.93Zm0,6.4h-2.13v-4.27h2.13A2.135,2.135,0,0,1,1363.36,2116.33Zm0-38.42h-5.33v2.13h5.33a2.132,2.132,0,0,1,2.13,2.13v32.03h2.14v-32.03A4.266,4.266,0,0,0,1363.36,2077.91Zm-30.62,24.86,3.2-3.21,1.51,1.51-3.2,3.21Zm-4.26-4.27,3.2-3.2,1.51,1.5-3.2,3.21Zm8.53,8.54,3.2-3.21,1.51,1.51-3.2,3.21Zm4.27,4.27,3.2-3.2,1.5,1.51-3.2,3.2Zm-17.07-17.08,3.2-3.2,1.51,1.51-3.2,3.2Zm38.23-22.46-1.48-1.48a3.22,3.22,0,0,0-4.45,0l-16.22,16.23a1.062,1.062,0,0,0,0,1.51l4.42,4.43a1.074,1.074,0,0,0,1.51,0l16.22-16.23h0A3.157,3.157,0,0,0,1362.44,2071.77Zm-1.51,2.95-15.46,15.47-2.92-2.91,15.47-15.48a1.052,1.052,0,0,1,1.44,0l1.47,1.47h0A1.026,1.026,0,0,1,1360.93,2074.72Zm-15.81,15.97-4.6,1.54,1.54-4.62-2.03-.67-2.21,6.64a0.974,0.974,0,0,0-.06.34,1.063,1.063,0,0,0,1.07,1.06,0.912,0.912,0,0,0,.33-0.05l6.64-2.21Zm8.44-15.94,1.51-1.51,4.42,4.43-1.51,1.51Zm-14.73,18.1h16v2.13h-16v-2.13Zm18.13,0h2.14v2.13h-2.14v-2.13Zm4.27,0h2.13v2.13h-2.13v-2.13Z" transform="translate(-1316.44 -2069.41)"/>
</svg>
