<svg xmlns="http://www.w3.org/2000/svg" width="16.5" height="16.5" viewBox="0 0 16.5 16.5">
  <defs>
    <style>
      .cls-1 {
        fill: #101010;
        fill-rule: evenodd;
      }
    </style>
  </defs>
  <path id="Forma_1" data-name="Forma 1" class="cls-1" d="M1303.43,609.773a0.809,0.809,0,0,1-.25.7l-2.32,2.309a1.225,1.225,0,0,1-.41.3,1.639,1.639,0,0,1-.5.158l-0.1.009c-0.06.006-.14,0.009-0.23,0.009a7.922,7.922,0,0,1-1.07-.114,8.17,8.17,0,0,1-1.82-.559,15.116,15.116,0,0,1-2.44-1.338,18.848,18.848,0,0,1-2.9-2.448,19.094,19.094,0,0,1-2.02-2.308,15.343,15.343,0,0,1-1.29-2.037,10.481,10.481,0,0,1-.74-1.7,9.673,9.673,0,0,1-.33-1.311,4.335,4.335,0,0,1-.07-0.866c0.01-.21.02-0.326,0.02-0.35a1.627,1.627,0,0,1,.15-0.5,1.4,1.4,0,0,1,.3-0.411l2.32-2.325a0.78,0.78,0,0,1,.56-0.246,0.667,0.667,0,0,1,.41.131,1.294,1.294,0,0,1,.29.324l1.87,3.55a0.811,0.811,0,0,1,.09.612,1.137,1.137,0,0,1-.3.56l-0.85.856a0.248,0.248,0,0,0-.07.114,0.793,0.793,0,0,0-.02.131,3.368,3.368,0,0,0,.31.839,7.914,7.914,0,0,0,.65,1.024,16.59,16.59,0,0,0,2.64,2.64,7.839,7.839,0,0,0,1.02.656,2.572,2.572,0,0,0,.63.253l0.22,0.044a0.4,0.4,0,0,0,.11-0.027,0.265,0.265,0,0,0,.11-0.06l1-1.015a1.062,1.062,0,0,1,.73-0.279,0.885,0.885,0,0,1,.47.1h0.02l3.37,1.994A0.88,0.88,0,0,1,1303.43,609.773Z" transform="translate(-1286.94 -596.75)"/>
</svg>
