<svg xmlns="http://www.w3.org/2000/svg" width="14.94" height="19.562" viewBox="0 0 14.94 19.562">
  <defs>
    <style>
      .cls-1 {
        fill: #101010;
        fill-rule: evenodd;
      }
    </style>
  </defs>
  <path id="Forma_1" data-name="Forma 1" class="cls-1" d="M1078,604.785c2.18,0,3.95-2.145,3.95-4.789s-0.58-4.789-3.95-4.789-3.95,2.144-3.95,4.789S1075.82,604.785,1078,604.785Zm-7.45,7.312c-0.01-.161-0.01-0.046,0,0h0Zm14.9,0.126c0.01-.044,0-0.306,0,0h0Zm0-.319c-0.08-4.608-.68-5.921-5.29-6.752a3.237,3.237,0,0,1-4.32,0c-4.56.823-5.2,2.116-5.28,6.6-0.01.366-.01,0.385-0.01,0.343v0.484s1.09,2.21,7.45,2.21,7.45-2.21,7.45-2.21V611.9Z" transform="translate(-1070.53 -595.219)"/>
</svg>
